<?xml version="1.0" encoding="utf-8"?>
<!-- Generator: Adobe Illustrator 14.0.0, SVG Export Plug-In . SVG Version: 6.00 Build 43363)  -->
<!DOCTYPE svg PUBLIC "-//W3C//DTD SVG 1.1//EN" "http://www.w3.org/Graphics/SVG/1.1/DTD/svg11.dtd">
<svg version="1.1" xmlns="http://www.w3.org/2000/svg" xmlns:xlink="http://www.w3.org/1999/xlink" x="0px" y="0px" width="400px"
	 height="400px" viewBox="0 0 400 400" enable-background="new 0 0 400 400" xml:space="preserve">
<g id="Layer_1">
	<path fill="#FFFFFF" stroke="#B3B3B3" stroke-width="15" d="M337.264,99.413H197.325V89.327c0-8.465-7.057-15.327-15.764-15.327
		H43.483c-8.705,0-15.763,6.862-15.763,15.327v44.502c0,1.379,0.205,2.709,0.556,3.98v194.007c0,8.711,7.057,15.773,15.763,15.773
		h293.224c8.705,0,15.764-7.063,15.764-15.773V115.187C353.027,106.474,345.969,99.413,337.264,99.413z"/>
	<path fill="#FFFFFF" stroke="#B3B3B3" stroke-width="15" d="M342.414,331.237c0,8.704-7.057,15.762-15.762,15.762H26.215
		c-8.706,0-15.763-7.058-15.763-15.762V154.243c0-8.706,7.058-15.763,15.763-15.763h300.437c8.705,0,15.762,7.057,15.762,15.763
		V331.237z"/>
</g>
<g id="Layer_3">
	<circle fill="#E6E6E6" cx="296.951" cy="278.999" r="100.006"/>
</g>
<g id="Layer_2">
	<g>
		<path fill="#4D4D4D" d="M309.106,341.434c0,6.715-5.441,12.156-12.154,12.156l0,0c-6.715,0-12.157-5.441-12.157-12.156V216.563
			c0-6.713,5.442-12.153,12.157-12.153l0,0c6.713,0,12.154,5.44,12.154,12.153V341.434z"/>
		<path fill="#4D4D4D" d="M359.386,266.843c6.715,0,12.156,5.442,12.156,12.153l0,0c0,6.715-5.441,12.157-12.156,12.157H234.517
			c-6.715,0-12.156-5.442-12.156-12.157l0,0c0-6.711,5.441-12.153,12.156-12.153H359.386z"/>
	</g>
</g>
</svg>
