<?xml version="1.0" encoding="utf-8"?>
<!-- Generator: Adobe Illustrator 14.0.0, SVG Export Plug-In . SVG Version: 6.00 Build 43363)  -->
<!DOCTYPE svg PUBLIC "-//W3C//DTD SVG 1.1//EN" "http://www.w3.org/Graphics/SVG/1.1/DTD/svg11.dtd">
<svg version="1.1" xmlns="http://www.w3.org/2000/svg" xmlns:xlink="http://www.w3.org/1999/xlink" x="0px" y="0px"
	 width="263.174px" height="263.174px" viewBox="0 0 263.174 263.174" enable-background="new 0 0 263.174 263.174"
	 xml:space="preserve">
<g id="Layer_1">
	<g>
		<polygon fill="#FFFFFF" stroke="#B3B3B3" stroke-width="8" stroke-linejoin="round" points="248.397,25.737 93.975,28.005 
			14.754,52.17 187.179,52.902 		"/>
		<polygon fill="#FFFFFF" stroke="#B3B3B3" stroke-width="8" stroke-linejoin="round" points="246.894,163.355 186.466,226.769 
			188.355,55.294 248.445,25.671 		"/>
		
			<rect x="14.224" y="53.919" fill="#FFFFFF" stroke="#B3B3B3" stroke-width="8" stroke-linejoin="round" width="172.728" height="172.727"/>
		<polygon fill="#FFFFFF" stroke="#B3B3B3" stroke-width="8" stroke-linejoin="round" points="14.143,52.177 184.595,53.402 
			127.974,33.7 		"/>
		<polygon fill="#FFFFFF" stroke="#B3B3B3" stroke-width="8" stroke-linejoin="round" points="248.231,26.215 95.059,28.215 
			121.519,44.367 		"/>
	</g>
</g>
<g id="Layer_3">
	<circle fill="#E6E6E6" cx="172.796" cy="189.353" r="56.173"/>
</g>
<g id="Layer_2">
	<g>
		<path fill="#4D4D4D" d="M179.624,224.422c0,3.771-3.057,6.828-6.827,6.828l0,0c-3.771,0-6.828-3.057-6.828-6.828v-70.139
			c0-3.771,3.057-6.827,6.828-6.827l0,0c3.771,0,6.827,3.057,6.827,6.827V224.422z"/>
		<path fill="#4D4D4D" d="M207.865,182.525c3.771,0,6.828,3.057,6.828,6.826l0,0c0,3.771-3.057,6.828-6.828,6.828h-70.138
			c-3.771,0-6.828-3.057-6.828-6.828l0,0c0-3.77,3.057-6.826,6.828-6.826H207.865z"/>
	</g>
</g>
</svg>
