<?xml version="1.0" encoding="utf-8"?>
<!-- Generator: Adobe Illustrator 14.0.0, SVG Export Plug-In . SVG Version: 6.00 Build 43363)  -->
<!DOCTYPE svg PUBLIC "-//W3C//DTD SVG 1.1//EN" "http://www.w3.org/Graphics/SVG/1.1/DTD/svg11.dtd">
<svg version="1.1" xmlns="http://www.w3.org/2000/svg" xmlns:xlink="http://www.w3.org/1999/xlink" x="0px" y="0px"
	 width="334.483px" height="334.483px" viewBox="0 0 334.483 334.483" enable-background="new 0 0 334.483 334.483"
	 xml:space="preserve">
<g id="Layer_1">
	<path fill="#FFFFFF" stroke="#999999" stroke-width="10" d="M280.036,303.85c0,7.827-6.346,14.173-14.173,14.173H70.759
		c-7.828,0-14.173-6.346-14.173-14.173V58.849V43.573c0-7.828,6.346-14.173,14.173-14.173h195.104
		c7.827,0,14.173,6.346,14.173,14.173V303.85z"/>
	<line fill="none" stroke="#B3B3B3" stroke-width="3" x1="83.276" y1="67.883" x2="253.346" y2="67.883"/>
	<line fill="none" stroke="#B3B3B3" stroke-width="3" x1="83.276" y1="87.883" x2="253.346" y2="87.883"/>
	<line fill="none" stroke="#B3B3B3" stroke-width="3" x1="83.276" y1="107.883" x2="253.346" y2="107.883"/>
	<line fill="none" stroke="#B3B3B3" stroke-width="3" x1="83.276" y1="127.883" x2="253.346" y2="127.883"/>
	<line fill="none" stroke="#B3B3B3" stroke-width="3" x1="83.276" y1="147.883" x2="253.346" y2="147.883"/>
	<line fill="none" stroke="#B3B3B3" stroke-width="3" x1="83.276" y1="167.883" x2="253.346" y2="167.883"/>
	<line fill="none" stroke="#B3B3B3" stroke-width="3" x1="83.276" y1="187.884" x2="253.346" y2="187.884"/>
	<line fill="none" stroke="#B3B3B3" stroke-width="3" x1="83.276" y1="207.884" x2="253.346" y2="207.884"/>
	<line fill="none" stroke="#B3B3B3" stroke-width="3" x1="83.276" y1="227.884" x2="253.346" y2="227.884"/>
	<line fill="none" stroke="#B3B3B3" stroke-width="3" x1="83.276" y1="247.884" x2="253.346" y2="247.884"/>
	<line fill="none" stroke="#B3B3B3" stroke-width="3" x1="83.276" y1="267.884" x2="253.346" y2="267.884"/>
	<line fill="none" stroke="#B3B3B3" stroke-width="3" x1="83.276" y1="287.884" x2="253.346" y2="287.884"/>
</g>
<g id="Layer_3">
	<circle fill="#E6E6E6" cx="243.521" cy="76.102" r="56.172"/>
	<path fill="#4D4D4D" d="M262.568,25.885c5.011-9.688,18.702-3.044,21.312,11.309c0,0,0.436-23.486-20.594-26.453
		c-31.302-4.416-41.602,29.063-37.766,72.885h-27.334l45.411,41.284l45.469-41.284h-27.334
		C261.732,83.625,249.521,51.112,262.568,25.885z"/>
</g>
<g id="Layer_2">
</g>
</svg>
