<?xml version="1.0" encoding="utf-8"?>
<!-- Generator: Adobe Illustrator 14.0.0, SVG Export Plug-In . SVG Version: 6.00 Build 43363)  -->
<!DOCTYPE svg PUBLIC "-//W3C//DTD SVG 1.1//EN" "http://www.w3.org/Graphics/SVG/1.1/DTD/svg11.dtd">
<svg version="1.1" xmlns="http://www.w3.org/2000/svg" xmlns:xlink="http://www.w3.org/1999/xlink" x="0px" y="0px" width="400px"
	 height="400px" viewBox="0 0 400 400" enable-background="new 0 0 400 400" xml:space="preserve">
<g id="Layer_1">
	<g>
		<polygon fill="#FFFFFF" stroke="#B3B3B3" stroke-width="10" stroke-linejoin="round" points="381.197,51.494 144.089,55.186 
			22.45,94.512 287.199,95.703 		"/>
		<polygon fill="#FFFFFF" stroke="#B3B3B3" stroke-width="14" stroke-linejoin="round" points="378.904,265.465 286.771,362.908 
			289.652,99.412 381.271,53.892 		"/>
		
			<rect x="21.635" y="97.266" fill="#FFFFFF" stroke="#B3B3B3" stroke-width="15" stroke-linejoin="round" width="265.214" height="265.213"/>
		<polygon fill="#FFFFFF" stroke="#B3B3B3" stroke-width="10" stroke-linejoin="round" points="21.512,94.59 283.231,96.471 
			196.292,66.22 		"/>
		<polygon fill="#FFFFFF" stroke="#B3B3B3" stroke-width="10" stroke-linejoin="round" points="380.942,54.728 145.753,57.799 
			186.381,82.599 		"/>
	</g>
</g>
<g id="Layer_2">
	<path fill="#4D4D4D" d="M233.446,42.959c20.401-8.549,45.378-5.115,68.918,6.237c0,0-26.35-19.782-64.479-14.799
		c-48.128,6.29-104.875,43.449-111.195,145.387H84.722l69.726,63.391l69.813-63.391h-41.969
		C182.292,179.784,164.737,71.755,233.446,42.959z"/>
</g>
<g id="Layer_3">
</g>
</svg>
