<?xml version="1.0" encoding="utf-8"?>
<!-- Generator: Adobe Illustrator 14.0.0, SVG Export Plug-In . SVG Version: 6.00 Build 43363)  -->
<!DOCTYPE svg PUBLIC "-//W3C//DTD SVG 1.1//EN" "http://www.w3.org/Graphics/SVG/1.1/DTD/svg11.dtd">
<svg version="1.1" xmlns="http://www.w3.org/2000/svg" xmlns:xlink="http://www.w3.org/1999/xlink" x="0px" y="0px" width="382px"
	 height="382px" viewBox="0 0 382 382" enable-background="new 0 0 382 382" xml:space="preserve">
<g id="Layer_1">
	<linearGradient id="SVGID_1_" gradientUnits="userSpaceOnUse" x1="346.1523" y1="182.3677" x2="233.4431" y2="198.2079">
		<stop  offset="0" style="stop-color:#B3EDCC;stop-opacity:0.75"/>
		<stop  offset="1" style="stop-color:#E6E6C7"/>
	</linearGradient>
	<polygon fill="url(#SVGID_1_)" stroke="#00B3C4" stroke-width="6" stroke-linejoin="round" points="330.221,269.156 
		249.137,309.88 249.372,111.417 330.457,70.696 	"/>
	<linearGradient id="SVGID_2_" gradientUnits="userSpaceOnUse" x1="49.5303" y1="210.9199" x2="248.1953" y2="210.9199">
		<stop  offset="0" style="stop-color:#B3EDCC;stop-opacity:0.3"/>
		<stop  offset="1" style="stop-color:#E6E6C7"/>
	</linearGradient>
	
		<rect x="49.53" y="111.587" fill="url(#SVGID_2_)" stroke="#00B3C4" stroke-width="6" stroke-linejoin="round" width="198.665" height="198.665"/>
	<polygon fill="#FFFFFF" stroke="#00B3C4" stroke-width="6" stroke-linejoin="round" points="330.37,70.619 132.055,69.515 
		50.141,110.464 248.457,111.567 	"/>
	<linearGradient id="SVGID_3_" gradientUnits="userSpaceOnUse" x1="331.7002" y1="150.2085" x2="287.7566" y2="85.0594">
		<stop  offset="0" style="stop-color:#B3EDCC"/>
		<stop  offset="0.1342" style="stop-color:#BFEBCB"/>
		<stop  offset="0.4365" style="stop-color:#D5E8C9"/>
		<stop  offset="0.7294" style="stop-color:#E2E7C7"/>
		<stop  offset="1" style="stop-color:#E6E6C7"/>
	</linearGradient>
	<polygon fill="url(#SVGID_3_)" stroke="#00B3C4" stroke-width="6" stroke-linejoin="round" points="248.457,111.567 
		292.214,169.705 371,123.7 330.37,70.619 	"/>
	<linearGradient id="SVGID_4_" gradientUnits="userSpaceOnUse" x1="16.645" y1="153.8677" x2="56.7264" y2="117.7782">
		<stop  offset="0" style="stop-color:#B3EDCC"/>
		<stop  offset="0.2587" style="stop-color:#B9ECCB"/>
		<stop  offset="0.6183" style="stop-color:#CBEACA"/>
		<stop  offset="1" style="stop-color:#E6E6C7"/>
	</linearGradient>
	<polygon fill="url(#SVGID_4_)" stroke="#00B3C4" stroke-width="6" stroke-linecap="round" stroke-linejoin="round" points="
		50.141,110.464 13.3,150.153 49.53,137.502 	"/>
	<linearGradient id="SVGID_5_" gradientUnits="userSpaceOnUse" x1="50.1406" y1="90.2813" x2="132.0552" y2="90.2813">
		<stop  offset="0" style="stop-color:#E6E6C7"/>
		<stop  offset="0.2599" style="stop-color:#E2E7C7"/>
		<stop  offset="0.5308" style="stop-color:#D5E8C9"/>
		<stop  offset="0.8059" style="stop-color:#C1EBCB"/>
		<stop  offset="0.9455" style="stop-color:#B3EDCC"/>
	</linearGradient>
	<polygon fill="url(#SVGID_5_)" stroke="#00B3C4" stroke-width="6" stroke-linejoin="round" points="50.141,110.464 132.055,69.515 
		132.055,111.048 	"/>
	<linearGradient id="SVGID_6_" gradientUnits="userSpaceOnUse" x1="132.0552" y1="91.0928" x2="330.3701" y2="91.0928">
		<stop  offset="0" style="stop-color:#B3EDCC"/>
		<stop  offset="0.1342" style="stop-color:#BFEBCB"/>
		<stop  offset="0.4365" style="stop-color:#D5E8C9"/>
		<stop  offset="0.7294" style="stop-color:#E2E7C7"/>
		<stop  offset="1" style="stop-color:#E6E6C7"/>
	</linearGradient>
	<polygon fill="url(#SVGID_6_)" stroke="#00B3C4" stroke-width="6" stroke-linejoin="round" points="248.457,111.567 330.37,70.619 
		132.055,70.619 132.055,111.048 	"/>
</g>
<g id="Layer_2">
	<g>
		<path stroke="#00B3C4" stroke-width="4" stroke-linecap="round" stroke-linejoin="round" d="M184.309,227.444v-0.341h-0.013
			c-0.514-17.626-18.065-31.779-38.26-31.779c-20.371,0-38.041,14.398-38.278,32.235h0.025v0.923h15.004v-1.241
			c0.46-12.158,10.389-18.897,23.249-19.044c12.99-0.149,22.878,6.955,23.253,19.177v33.296h15.019v-33.11h0.006
			C184.315,227.521,184.311,227.483,184.309,227.444z"/>
		<g id="body_2_">
			<path stroke="#00B3C4" stroke-width="4" stroke-linecap="round" stroke-linejoin="round" d="M181.453,253.834h-57.257v-5.318
				c0-2.273-1.493-4.116-3.337-4.116h-10.829c-1.844,0-3.337,1.844-3.337,4.116v5.401c-4.697,0.608-8.336,4.808-8.336,9.909v19.369
				c0,5.516,4.254,9.991,9.503,9.991h73.594c5.248,0,9.502-4.473,9.502-9.991v-19.369
				C190.955,258.309,186.701,253.834,181.453,253.834z"/>
		</g>
	</g>
	<linearGradient id="SVGID_7_" gradientUnits="userSpaceOnUse" x1="169.6997" y1="211.6572" x2="87.7949" y2="90.2283">
		<stop  offset="0" style="stop-color:#B3EDCC"/>
		<stop  offset="0.1342" style="stop-color:#BFEBCB"/>
		<stop  offset="0.4365" style="stop-color:#D5E8C9"/>
		<stop  offset="0.7294" style="stop-color:#E2E7C7"/>
		<stop  offset="1" style="stop-color:#E6E6C7"/>
	</linearGradient>
	<polygon fill="url(#SVGID_7_)" stroke="#00B3C4" stroke-width="6" stroke-linejoin="round" points="51.255,114.874 
		245.006,112.718 208.827,185.266 11,186.959 	"/>
</g>
<g id="Layer_3">
</g>
</svg>
